{
  "asset": {
    "version": "2.0",
    "generator": "THREE.GLTFExporter r177"
  },
  "scenes": [
    {
      "name": "Scene",
      "nodes": [
        0,
        8
      ]
    }
  ],
  "scene": 0,
  "nodes": [
    {
      "name": "FAB_converted",
      "children": [
        1
      ]
    },
    {
      "matrix": [
        1,
        0,
        0,
        0,
        0,
        2.220446049250313e-16,
        -1,
        0,
        0,
        1,
        2.220446049250313e-16,
        0,
        0,
        0,
        0,
        1
      ],
      "name": "FAB_converted_model",
      "extras": {
        "name": "FAB converted model"
      },
      "children": [
        2
      ]
    },
    {
      "matrix": [
        0.009999999776482582,
        0,
        0,
        0,
        0,
        2.2204459996194763e-18,
        0.009999999776482582,
        0,
        0,
        -0.009999999776482582,
        2.2204459996194763e-18,
        0,
        0,
        0,
        0,
        1
      ],
      "name": "retrocomputerfbx",
      "extras": {
        "name": "retrocomputer.fbx"
      },
      "children": [
        3
      ]
    },
    {
      "name": "RootNode",
      "extras": {
        "name": "RootNode"
      },
      "children": [
        4
      ]
    },
    {
      "matrix": [
        0.000004371139006309478,
        -5.5511151231257835e-15,
        99.99999999999993,
        0,
        99.99999999999983,
        -0.000004371139006309478,
        -0.000004371139006309478,
        0,
        0.000004371139006309478,
        99.99999999999993,
        -1.998401444325282e-13,
        0,
        0,
        0,
        0,
        1
      ],
      "name": "PC",
      "extras": {
        "name": "PC"
      },
      "children": [
        5,
        6,
        7
      ]
    },
    {
      "name": "PC_M_PCBody_0",
      "extras": {
        "name": "PC_M_PCBody_0"
      },
      "mesh": 0
    },
    {
      "name": "PC_M_Screen_0",
      "extras": {
        "name": "PC_M_Screen_0"
      },
      "mesh": 1
    },
    {
      "name": "PC_M_Keys_0",
      "extras": {
        "name": "PC_M_Keys_0"
      },
      "mesh": 2
    },
    {
      "matrix": [
        1,
        0,
        0,
        0,
        0,
        1,
        0,
        0,
        0,
        0,
        1,
        0,
        0,
        0.7207965367744535,
        0.8997676643321502,
        1
      ],
      "name": "PointLight",
      "extensions": {
        "KHR_lights_punctual": {
          "light": 0
        }
      }
    }
  ],
  "bufferViews": [
    {
      "buffer": 0,
      "byteOffset": 0,
      "byteLength": 132900,
      "target": 34962,
      "byteStride": 12
    },
    {
      "buffer": 0,
      "byteOffset": 132900,
      "byteLength": 132900,
      "target": 34962,
      "byteStride": 12
    },
    {
      "buffer": 0,
      "byteOffset": 265800,
      "byteLength": 88600,
      "target": 34962,
      "byteStride": 8
    },
    {
      "buffer": 0,
      "byteOffset": 354400,
      "byteLength": 66720,
      "target": 34963
    },
    {
      "buffer": 0,
      "byteOffset": 421120,
      "byteLength": 48,
      "target": 34962,
      "byteStride": 12
    },
    {
      "buffer": 0,
      "byteOffset": 421168,
      "byteLength": 48,
      "target": 34962,
      "byteStride": 12
    },
    {
      "buffer": 0,
      "byteOffset": 421216,
      "byteLength": 32,
      "target": 34962,
      "byteStride": 8
    },
    {
      "buffer": 0,
      "byteOffset": 421248,
      "byteLength": 24,
      "target": 34963
    },
    {
      "buffer": 0,
      "byteOffset": 421272,
      "byteLength": 29856,
      "target": 34962,
      "byteStride": 12
    },
    {
      "buffer": 0,
      "byteOffset": 451128,
      "byteLength": 29856,
      "target": 34962,
      "byteStride": 12
    },
    {
      "buffer": 0,
      "byteOffset": 480984,
      "byteLength": 19904,
      "target": 34962,
      "byteStride": 8
    },
    {
      "buffer": 0,
      "byteOffset": 500888,
      "byteLength": 14928,
      "target": 34963
    }
  ],
  "buffers": [
    {
      "byteLength": 515816,
      "uri": "data:application/octet-stream;base64,"
    }
  ],
  "accessors": [
    {
      "bufferView": 0,
      "componentType": 5126,
      "count": 11075,
      "max": [
        1,
        1,
        1
      ],
      "min": [
        -1,
        -1,
        -1
      ],
      "type": "VEC3"
    },
    {
      "bufferView": 1,
      "componentType": 5126,
      "count": 11075,
      "max": [
        0.543444812297821,
        0.34134921431541443,
        0.49921953678131104
      ],
      "min": [
        -0.3408461809158325,
        -0.34134921431541443,
        -0.0509459413588047
      ],
      "type": "VEC3"
    },
    {
      "bufferView": 2,
      "componentType": 5126,
      "count": 11075,
      "max": [
        0.9949808120727539,
        0.9928114414215088
      ],
      "min": [
        0.009109586477279663,
        0.03462653234601021
      ],
      "type": "VEC2"
    },
    {
      "bufferView": 3,
      "componentType": 5125,
      "count": 16680,
      "max": [
        11074
      ],
      "min": [
        0
      ],
      "type": "SCALAR"
    },
    {
      "bufferView": 4,
      "componentType": 5126,
      "count": 4,
      "max": [
        1,
        0,
        0
      ],
      "min": [
        1,
        0,
        0
      ],
      "type": "VEC3"
    },
    {
      "bufferView": 5,
      "componentType": 5126,
      "count": 4,
      "max": [
        0.17862622439861298,
        0.14845535159111023,
        0.464322954416275
      ],
      "min": [
        0.17862622439861298,
        -0.14845535159111023,
        0.22089383006095886
      ],
      "type": "VEC3"
    },
    {
      "bufferView": 6,
      "componentType": 5126,
      "count": 4,
      "max": [
        0.9999999403953552,
        1
      ],
      "min": [
        0,
        0
      ],
      "type": "VEC2"
    },
    {
      "bufferView": 7,
      "componentType": 5125,
      "count": 6,
      "max": [
        3
      ],
      "min": [
        0
      ],
      "type": "SCALAR"
    },
    {
      "bufferView": 8,
      "componentType": 5126,
      "count": 2488,
      "max": [
        0.9960507154464722,
        1,
        0.9960505366325378
      ],
      "min": [
        -0.9960505962371826,
        -1,
        -0.9960505962371826
      ],
      "type": "VEC3"
    },
    {
      "bufferView": 9,
      "componentType": 5126,
      "count": 2488,
      "max": [
        0.5051552653312683,
        0.3008805513381958,
        0.014888523146510124
      ],
      "min": [
        0.33625856041908264,
        -0.3005126714706421,
        -0.022425545379519463
      ],
      "type": "VEC3"
    },
    {
      "bufferView": 10,
      "componentType": 5126,
      "count": 2488,
      "max": [
        0.9875838160514832,
        0.9715626239776611
      ],
      "min": [
        0.011740803718566895,
        0.01379251480102539
      ],
      "type": "VEC2"
    },
    {
      "bufferView": 11,
      "componentType": 5125,
      "count": 3732,
      "max": [
        2487
      ],
      "min": [
        0
      ],
      "type": "SCALAR"
    }
  ],
  "materials": [
    {
      "pbrMetallicRoughness": {
        "metallicFactor": 0,
        "roughnessFactor": 0.821115017,
        "baseColorTexture": {
          "index": 0,
          "texCoord": 0
        }
      },
      "doubleSided": true,
      "name": "M_PCBody"
    },
    {
      "pbrMetallicRoughness": {
        "baseColorFactor": [
          0.800000012,
          0.800000012,
          0.800000012,
          1
        ],
        "metallicFactor": 0,
        "roughnessFactor": 0.821115017
      },
      "doubleSided": true,
      "name": "M_Screen"
    },
    {
      "pbrMetallicRoughness": {
        "baseColorFactor": [
          0.800000012,
          0.800000012,
          0.800000012,
          1
        ],
        "metallicFactor": 0,
        "roughnessFactor": 0.821115017
      },
      "doubleSided": true,
      "name": "M_Keys"
    }
  ],
  "textures": [
    {
      "sampler": 0,
      "source": 0,
      "name": "textures/M_PCBody_BaseColor.jpeg"
    }
  ],
  "samplers": [
    {
      "magFilter": 9729,
      "minFilter": 9987,
      "wrapS": 10497,
      "wrapT": 10497
    }
  ],
  "images": [
    {
      "mimeType": "image/jpeg",
      "uri": "data:image/jpeg;base64,"
    }
  ],
  "meshes": [
    {
      "primitives": [
        {
          "mode": 4,
          "attributes": {
            "NORMAL": 0,
            "POSITION": 1,
            "TEXCOORD_0": 2
          },
          "indices": 3,
          "material": 0
        }
      ]
    },
    {
      "primitives": [
        {
          "mode": 4,
          "attributes": {
            "NORMAL": 4,
            "POSITION": 5,
            "TEXCOORD_0": 6
          },
          "indices": 7,
          "material": 1
        }
      ]
    },
    {
      "primitives": [
        {
          "mode": 4,
          "attributes": {
            "NORMAL": 8,
            "POSITION": 9,
            "TEXCOORD_0": 10
          },
          "indices": 11,
          "material": 2
        }
      ]
    }
  ],
  "extensions": {
    "KHR_lights_punctual": {
      "lights": [
        {
          "name": "PointLight",
          "color": [
            1,
            1,
            1
          ],
          "intensity": 1,
          "type": "point"
        }
      ]
    }
  },
  "extensionsUsed": [
    "KHR_lights_punctual"
  ]
}